<mxfile host="65bd71144e">
    <diagram id="tOeiJCMXCNyVp_t3Fdfe" name="Page-1">
        <mxGraphModel dx="2023" dy="638" grid="1" gridSize="10" guides="1" tooltips="1" connect="1" arrows="1" fold="1" page="1" pageScale="1" pageWidth="850" pageHeight="1100" math="0" shadow="0">
            <root>
                <mxCell id="0"/>
                <mxCell id="1" parent="0"/>
                <mxCell id="57" value="" style="edgeStyle=none;html=1;" edge="1" parent="1" source="13" target="26">
                    <mxGeometry relative="1" as="geometry"/>
                </mxCell>
                <mxCell id="13" value="" style="rounded=0;whiteSpace=wrap;html=1;" vertex="1" parent="1">
                    <mxGeometry x="160" y="200" width="330" height="450" as="geometry"/>
                </mxCell>
                <mxCell id="4" value="&lt;div&gt;&lt;br&gt;&lt;/div&gt;" style="rounded=0;whiteSpace=wrap;html=1;" vertex="1" parent="1">
                    <mxGeometry x="250" y="220" width="210" height="190" as="geometry"/>
                </mxCell>
                <mxCell id="3" value="m,n" style="rounded=0;whiteSpace=wrap;html=1;" vertex="1" parent="1">
                    <mxGeometry x="290" y="290" width="60" height="40" as="geometry"/>
                </mxCell>
                <mxCell id="5" value="U,3" style="rounded=0;whiteSpace=wrap;html=1;" vertex="1" parent="1">
                    <mxGeometry x="365" y="230" width="60" height="40" as="geometry"/>
                </mxCell>
                <mxCell id="6" value="S,3" style="rounded=0;whiteSpace=wrap;html=1;" vertex="1" parent="1">
                    <mxGeometry x="365" y="290" width="60" height="40" as="geometry"/>
                </mxCell>
                <mxCell id="7" value="NT11,3" style="rounded=0;whiteSpace=wrap;html=1;" vertex="1" parent="1">
                    <mxGeometry x="365" y="350" width="60" height="40" as="geometry"/>
                </mxCell>
                <mxCell id="8" value="&lt;div&gt;&lt;br&gt;&lt;/div&gt;" style="rounded=0;whiteSpace=wrap;html=1;" vertex="1" parent="1">
                    <mxGeometry x="250" y="440" width="210" height="190" as="geometry"/>
                </mxCell>
                <mxCell id="9" value="m,n" style="rounded=0;whiteSpace=wrap;html=1;" vertex="1" parent="1">
                    <mxGeometry x="290" y="510" width="60" height="40" as="geometry"/>
                </mxCell>
                <mxCell id="10" value="U,3" style="rounded=0;whiteSpace=wrap;html=1;" vertex="1" parent="1">
                    <mxGeometry x="365" y="450" width="60" height="40" as="geometry"/>
                </mxCell>
                <mxCell id="11" value="S,3" style="rounded=0;whiteSpace=wrap;html=1;" vertex="1" parent="1">
                    <mxGeometry x="365" y="510" width="60" height="40" as="geometry"/>
                </mxCell>
                <mxCell id="12" value="NT11,3" style="rounded=0;whiteSpace=wrap;html=1;" vertex="1" parent="1">
                    <mxGeometry x="365" y="570" width="60" height="40" as="geometry"/>
                </mxCell>
                <mxCell id="14" value="m,n,2,7" style="text;html=1;align=center;verticalAlign=middle;whiteSpace=wrap;rounded=0;" vertex="1" parent="1">
                    <mxGeometry x="170" y="410" width="60" height="30" as="geometry"/>
                </mxCell>
                <mxCell id="15" value="" style="rounded=0;whiteSpace=wrap;html=1;" vertex="1" parent="1">
                    <mxGeometry x="570" y="200" width="330" height="450" as="geometry"/>
                </mxCell>
                <mxCell id="16" value="&lt;div&gt;&lt;br&gt;&lt;/div&gt;" style="rounded=0;whiteSpace=wrap;html=1;" vertex="1" parent="1">
                    <mxGeometry x="660" y="220" width="210" height="190" as="geometry"/>
                </mxCell>
                <mxCell id="17" value="m,n" style="rounded=0;whiteSpace=wrap;html=1;" vertex="1" parent="1">
                    <mxGeometry x="700" y="290" width="60" height="40" as="geometry"/>
                </mxCell>
                <mxCell id="18" value="U,3" style="rounded=0;whiteSpace=wrap;html=1;" vertex="1" parent="1">
                    <mxGeometry x="775" y="230" width="60" height="40" as="geometry"/>
                </mxCell>
                <mxCell id="19" value="S,3" style="rounded=0;whiteSpace=wrap;html=1;" vertex="1" parent="1">
                    <mxGeometry x="775" y="290" width="60" height="40" as="geometry"/>
                </mxCell>
                <mxCell id="20" value="NT11,3" style="rounded=0;whiteSpace=wrap;html=1;" vertex="1" parent="1">
                    <mxGeometry x="775" y="350" width="60" height="40" as="geometry"/>
                </mxCell>
                <mxCell id="21" value="&lt;div&gt;&lt;br&gt;&lt;/div&gt;" style="rounded=0;whiteSpace=wrap;html=1;" vertex="1" parent="1">
                    <mxGeometry x="660" y="440" width="210" height="190" as="geometry"/>
                </mxCell>
                <mxCell id="22" value="m,n" style="rounded=0;whiteSpace=wrap;html=1;" vertex="1" parent="1">
                    <mxGeometry x="700" y="510" width="60" height="40" as="geometry"/>
                </mxCell>
                <mxCell id="23" value="U,3" style="rounded=0;whiteSpace=wrap;html=1;" vertex="1" parent="1">
                    <mxGeometry x="775" y="450" width="60" height="40" as="geometry"/>
                </mxCell>
                <mxCell id="24" value="S,3" style="rounded=0;whiteSpace=wrap;html=1;" vertex="1" parent="1">
                    <mxGeometry x="775" y="510" width="60" height="40" as="geometry"/>
                </mxCell>
                <mxCell id="25" value="NT11,3" style="rounded=0;whiteSpace=wrap;html=1;" vertex="1" parent="1">
                    <mxGeometry x="775" y="570" width="60" height="40" as="geometry"/>
                </mxCell>
                <mxCell id="26" value="m,n,2,7" style="text;html=1;align=center;verticalAlign=middle;whiteSpace=wrap;rounded=0;" vertex="1" parent="1">
                    <mxGeometry x="580" y="410" width="60" height="30" as="geometry"/>
                </mxCell>
                <mxCell id="27" value="Step1" style="text;html=1;align=center;verticalAlign=middle;whiteSpace=wrap;rounded=0;" vertex="1" parent="1">
                    <mxGeometry x="290" y="120" width="60" height="30" as="geometry"/>
                </mxCell>
                <mxCell id="29" value="Step2" style="text;html=1;align=center;verticalAlign=middle;whiteSpace=wrap;rounded=0;" vertex="1" parent="1">
                    <mxGeometry x="705" y="120" width="60" height="30" as="geometry"/>
                </mxCell>
                <mxCell id="30" value="" style="rounded=0;whiteSpace=wrap;html=1;" vertex="1" parent="1">
                    <mxGeometry x="1020" y="200" width="330" height="450" as="geometry"/>
                </mxCell>
                <mxCell id="31" value="&lt;div&gt;&lt;br&gt;&lt;/div&gt;" style="rounded=0;whiteSpace=wrap;html=1;" vertex="1" parent="1">
                    <mxGeometry x="1110" y="220" width="210" height="190" as="geometry"/>
                </mxCell>
                <mxCell id="32" value="m,n" style="rounded=0;whiteSpace=wrap;html=1;" vertex="1" parent="1">
                    <mxGeometry x="1150" y="290" width="60" height="40" as="geometry"/>
                </mxCell>
                <mxCell id="33" value="U,3" style="rounded=0;whiteSpace=wrap;html=1;" vertex="1" parent="1">
                    <mxGeometry x="1225" y="230" width="60" height="40" as="geometry"/>
                </mxCell>
                <mxCell id="34" value="S,3" style="rounded=0;whiteSpace=wrap;html=1;" vertex="1" parent="1">
                    <mxGeometry x="1225" y="290" width="60" height="40" as="geometry"/>
                </mxCell>
                <mxCell id="35" value="NT11,3" style="rounded=0;whiteSpace=wrap;html=1;" vertex="1" parent="1">
                    <mxGeometry x="1225" y="350" width="60" height="40" as="geometry"/>
                </mxCell>
                <mxCell id="36" value="&lt;div&gt;&lt;br&gt;&lt;/div&gt;" style="rounded=0;whiteSpace=wrap;html=1;" vertex="1" parent="1">
                    <mxGeometry x="1110" y="440" width="210" height="190" as="geometry"/>
                </mxCell>
                <mxCell id="37" value="m,n" style="rounded=0;whiteSpace=wrap;html=1;" vertex="1" parent="1">
                    <mxGeometry x="1150" y="510" width="60" height="40" as="geometry"/>
                </mxCell>
                <mxCell id="38" value="U,3" style="rounded=0;whiteSpace=wrap;html=1;" vertex="1" parent="1">
                    <mxGeometry x="1225" y="450" width="60" height="40" as="geometry"/>
                </mxCell>
                <mxCell id="39" value="S,3" style="rounded=0;whiteSpace=wrap;html=1;" vertex="1" parent="1">
                    <mxGeometry x="1225" y="510" width="60" height="40" as="geometry"/>
                </mxCell>
                <mxCell id="40" value="NT11,3" style="rounded=0;whiteSpace=wrap;html=1;" vertex="1" parent="1">
                    <mxGeometry x="1225" y="570" width="60" height="40" as="geometry"/>
                </mxCell>
                <mxCell id="41" value="m,n,2,7" style="text;html=1;align=center;verticalAlign=middle;whiteSpace=wrap;rounded=0;" vertex="1" parent="1">
                    <mxGeometry x="1030" y="410" width="60" height="30" as="geometry"/>
                </mxCell>
                <mxCell id="42" value="Step45" style="text;html=1;align=center;verticalAlign=middle;whiteSpace=wrap;rounded=0;" vertex="1" parent="1">
                    <mxGeometry x="1155" y="120" width="60" height="30" as="geometry"/>
                </mxCell>
                <mxCell id="56" value="" style="edgeStyle=none;html=1;" edge="1" parent="1" source="43" target="13">
                    <mxGeometry relative="1" as="geometry"/>
                </mxCell>
                <mxCell id="43" value="" style="rounded=0;whiteSpace=wrap;html=1;" vertex="1" parent="1">
                    <mxGeometry x="-280" y="200" width="330" height="450" as="geometry"/>
                </mxCell>
                <mxCell id="44" value="&lt;div&gt;&lt;br&gt;&lt;/div&gt;" style="rounded=0;whiteSpace=wrap;html=1;" vertex="1" parent="1">
                    <mxGeometry x="-190" y="220" width="210" height="190" as="geometry"/>
                </mxCell>
                <mxCell id="45" value="m,n" style="rounded=0;whiteSpace=wrap;html=1;" vertex="1" parent="1">
                    <mxGeometry x="-150" y="290" width="60" height="40" as="geometry"/>
                </mxCell>
                <mxCell id="46" value="U,3" style="rounded=0;whiteSpace=wrap;html=1;" vertex="1" parent="1">
                    <mxGeometry x="-75" y="230" width="60" height="40" as="geometry"/>
                </mxCell>
                <mxCell id="47" value="S,3" style="rounded=0;whiteSpace=wrap;html=1;" vertex="1" parent="1">
                    <mxGeometry x="-75" y="290" width="60" height="40" as="geometry"/>
                </mxCell>
                <mxCell id="48" value="NT11,3" style="rounded=0;whiteSpace=wrap;html=1;" vertex="1" parent="1">
                    <mxGeometry x="-75" y="350" width="60" height="40" as="geometry"/>
                </mxCell>
                <mxCell id="49" value="&lt;div&gt;&lt;br&gt;&lt;/div&gt;" style="rounded=0;whiteSpace=wrap;html=1;" vertex="1" parent="1">
                    <mxGeometry x="-190" y="440" width="210" height="190" as="geometry"/>
                </mxCell>
                <mxCell id="50" value="m,n" style="rounded=0;whiteSpace=wrap;html=1;" vertex="1" parent="1">
                    <mxGeometry x="-150" y="510" width="60" height="40" as="geometry"/>
                </mxCell>
                <mxCell id="51" value="U,3" style="rounded=0;whiteSpace=wrap;html=1;" vertex="1" parent="1">
                    <mxGeometry x="-75" y="450" width="60" height="40" as="geometry"/>
                </mxCell>
                <mxCell id="52" value="S,3" style="rounded=0;whiteSpace=wrap;html=1;" vertex="1" parent="1">
                    <mxGeometry x="-75" y="510" width="60" height="40" as="geometry"/>
                </mxCell>
                <mxCell id="53" value="NT11,3" style="rounded=0;whiteSpace=wrap;html=1;" vertex="1" parent="1">
                    <mxGeometry x="-75" y="570" width="60" height="40" as="geometry"/>
                </mxCell>
                <mxCell id="54" value="m,n,2,7" style="text;html=1;align=center;verticalAlign=middle;whiteSpace=wrap;rounded=0;" vertex="1" parent="1">
                    <mxGeometry x="-270" y="410" width="60" height="30" as="geometry"/>
                </mxCell>
                <mxCell id="58" value="" style="endArrow=classic;html=1;entryX=0.011;entryY=0.85;entryDx=0;entryDy=0;entryPerimeter=0;" edge="1" parent="1" source="55" target="13">
                    <mxGeometry width="50" height="50" relative="1" as="geometry">
                        <mxPoint x="100" y="740" as="sourcePoint"/>
                        <mxPoint x="150" y="690" as="targetPoint"/>
                        <Array as="points">
                            <mxPoint x="100" y="583"/>
                        </Array>
                    </mxGeometry>
                </mxCell>
                <mxCell id="59" value="" style="endArrow=classic;html=1;entryX=0.011;entryY=0.85;entryDx=0;entryDy=0;entryPerimeter=0;" edge="1" parent="1" target="55">
                    <mxGeometry width="50" height="50" relative="1" as="geometry">
                        <mxPoint x="100" y="740" as="sourcePoint"/>
                        <mxPoint x="164" y="583" as="targetPoint"/>
                        <Array as="points"/>
                    </mxGeometry>
                </mxCell>
                <mxCell id="55" value="Hot" style="rounded=1;whiteSpace=wrap;html=1;" vertex="1" parent="1">
                    <mxGeometry x="40" y="700" width="120" height="60" as="geometry"/>
                </mxCell>
            </root>
        </mxGraphModel>
    </diagram>
</mxfile>